<mxfile host="Electron" modified="2023-11-23T07:17:20.821Z" agent="Mozilla/5.0 (Windows NT 10.0; Win64; x64) AppleWebKit/537.36 (KHTML, like Gecko) draw.io/21.6.8 Chrome/114.0.5735.289 Electron/25.5.0 Safari/537.36" etag="tctObIiWtlyW_tZ_9egt" version="21.6.8" type="device">
  <diagram name="Страница — 1" id="Hya5FmIw-EQ9puA3i9TD">
    <mxGraphModel dx="880" dy="532" grid="1" gridSize="10" guides="1" tooltips="1" connect="1" arrows="1" fold="1" page="1" pageScale="1" pageWidth="827" pageHeight="1169" math="0" shadow="0">
      <root>
        <mxCell id="0" />
        <mxCell id="1" parent="0" />
        <mxCell id="ZHXeCCwzYI6Dn_CKhOby-3" value="" style="rounded=0;whiteSpace=wrap;html=1;" vertex="1" parent="1">
          <mxGeometry x="337.5" y="110" width="120" height="90" as="geometry" />
        </mxCell>
        <mxCell id="ZHXeCCwzYI6Dn_CKhOby-5" value="" style="endArrow=none;html=1;rounded=0;exitX=0;exitY=0.25;exitDx=0;exitDy=0;entryX=1;entryY=0.25;entryDx=0;entryDy=0;" edge="1" parent="1" source="ZHXeCCwzYI6Dn_CKhOby-3" target="ZHXeCCwzYI6Dn_CKhOby-3">
          <mxGeometry width="50" height="50" relative="1" as="geometry">
            <mxPoint x="397.5" y="200" as="sourcePoint" />
            <mxPoint x="447.5" y="150" as="targetPoint" />
          </mxGeometry>
        </mxCell>
        <mxCell id="ZHXeCCwzYI6Dn_CKhOby-6" value="" style="rounded=0;whiteSpace=wrap;html=1;" vertex="1" parent="1">
          <mxGeometry x="337.5" y="180" width="90" height="20" as="geometry" />
        </mxCell>
        <mxCell id="ZHXeCCwzYI6Dn_CKhOby-7" value="склад" style="text;html=1;strokeColor=none;fillColor=none;align=center;verticalAlign=middle;whiteSpace=wrap;rounded=0;" vertex="1" parent="1">
          <mxGeometry x="372.5" y="110" width="50" height="20" as="geometry" />
        </mxCell>
        <mxCell id="ZHXeCCwzYI6Dn_CKhOby-8" value="&lt;font style=&quot;font-size: 7px;&quot;&gt;склад грузовой компании&lt;/font&gt;" style="text;html=1;strokeColor=none;fillColor=none;align=center;verticalAlign=middle;whiteSpace=wrap;rounded=0;" vertex="1" parent="1">
          <mxGeometry x="337.5" y="185" width="90" height="10" as="geometry" />
        </mxCell>
        <mxCell id="ZHXeCCwzYI6Dn_CKhOby-9" value="" style="rounded=0;whiteSpace=wrap;html=1;" vertex="1" parent="1">
          <mxGeometry x="170" y="280" width="120" height="90" as="geometry" />
        </mxCell>
        <mxCell id="ZHXeCCwzYI6Dn_CKhOby-10" value="" style="endArrow=none;html=1;rounded=0;exitX=0;exitY=0.25;exitDx=0;exitDy=0;entryX=1;entryY=0.25;entryDx=0;entryDy=0;" edge="1" parent="1" source="ZHXeCCwzYI6Dn_CKhOby-9" target="ZHXeCCwzYI6Dn_CKhOby-9">
          <mxGeometry width="50" height="50" relative="1" as="geometry">
            <mxPoint x="230" y="370" as="sourcePoint" />
            <mxPoint x="280" y="320" as="targetPoint" />
          </mxGeometry>
        </mxCell>
        <mxCell id="ZHXeCCwzYI6Dn_CKhOby-11" value="" style="rounded=0;whiteSpace=wrap;html=1;" vertex="1" parent="1">
          <mxGeometry x="170" y="350" width="90" height="20" as="geometry" />
        </mxCell>
        <mxCell id="ZHXeCCwzYI6Dn_CKhOby-12" value="выдача заказа" style="text;html=1;strokeColor=none;fillColor=none;align=center;verticalAlign=middle;whiteSpace=wrap;rounded=0;" vertex="1" parent="1">
          <mxGeometry x="175" y="280" width="110" height="20" as="geometry" />
        </mxCell>
        <mxCell id="ZHXeCCwzYI6Dn_CKhOby-13" value="&lt;font style=&quot;font-size: 12px;&quot;&gt;Кладовщик&lt;/font&gt;" style="text;html=1;strokeColor=none;fillColor=none;align=center;verticalAlign=middle;whiteSpace=wrap;rounded=0;" vertex="1" parent="1">
          <mxGeometry x="170" y="355" width="90" height="10" as="geometry" />
        </mxCell>
        <mxCell id="ZHXeCCwzYI6Dn_CKhOby-14" value="" style="rounded=0;whiteSpace=wrap;html=1;" vertex="1" parent="1">
          <mxGeometry x="340" y="280" width="120" height="90" as="geometry" />
        </mxCell>
        <mxCell id="ZHXeCCwzYI6Dn_CKhOby-15" value="" style="endArrow=none;html=1;rounded=0;exitX=0;exitY=0.25;exitDx=0;exitDy=0;entryX=1;entryY=0.25;entryDx=0;entryDy=0;" edge="1" parent="1" source="ZHXeCCwzYI6Dn_CKhOby-14" target="ZHXeCCwzYI6Dn_CKhOby-14">
          <mxGeometry width="50" height="50" relative="1" as="geometry">
            <mxPoint x="400" y="370" as="sourcePoint" />
            <mxPoint x="450" y="320" as="targetPoint" />
          </mxGeometry>
        </mxCell>
        <mxCell id="ZHXeCCwzYI6Dn_CKhOby-16" value="" style="rounded=0;whiteSpace=wrap;html=1;" vertex="1" parent="1">
          <mxGeometry x="340" y="350" width="90" height="20" as="geometry" />
        </mxCell>
        <mxCell id="ZHXeCCwzYI6Dn_CKhOby-17" value="оформление заказа" style="text;html=1;strokeColor=none;fillColor=none;align=center;verticalAlign=middle;whiteSpace=wrap;rounded=0;" vertex="1" parent="1">
          <mxGeometry x="342.5" y="280" width="115" height="20" as="geometry" />
        </mxCell>
        <mxCell id="ZHXeCCwzYI6Dn_CKhOby-18" value="&lt;font style=&quot;font-size: 12px;&quot;&gt;менеджер&lt;/font&gt;" style="text;html=1;strokeColor=none;fillColor=none;align=center;verticalAlign=middle;whiteSpace=wrap;rounded=0;strokeWidth=2;" vertex="1" parent="1">
          <mxGeometry x="340" y="355" width="90" height="10" as="geometry" />
        </mxCell>
        <mxCell id="ZHXeCCwzYI6Dn_CKhOby-20" value="" style="rounded=0;whiteSpace=wrap;html=1;" vertex="1" parent="1">
          <mxGeometry x="500" y="280" width="120" height="90" as="geometry" />
        </mxCell>
        <mxCell id="ZHXeCCwzYI6Dn_CKhOby-21" value="" style="endArrow=none;html=1;rounded=0;exitX=0;exitY=0.25;exitDx=0;exitDy=0;entryX=1;entryY=0.25;entryDx=0;entryDy=0;" edge="1" parent="1" source="ZHXeCCwzYI6Dn_CKhOby-20" target="ZHXeCCwzYI6Dn_CKhOby-20">
          <mxGeometry width="50" height="50" relative="1" as="geometry">
            <mxPoint x="560" y="370" as="sourcePoint" />
            <mxPoint x="610" y="320" as="targetPoint" />
          </mxGeometry>
        </mxCell>
        <mxCell id="ZHXeCCwzYI6Dn_CKhOby-22" value="" style="rounded=0;whiteSpace=wrap;html=1;" vertex="1" parent="1">
          <mxGeometry x="500" y="350" width="90" height="20" as="geometry" />
        </mxCell>
        <mxCell id="ZHXeCCwzYI6Dn_CKhOby-23" value="&lt;font style=&quot;font-size: 10px;&quot;&gt;оформление наакладной&lt;/font&gt;" style="text;html=1;strokeColor=none;fillColor=none;align=center;verticalAlign=middle;whiteSpace=wrap;rounded=0;" vertex="1" parent="1">
          <mxGeometry x="500" y="280" width="120" height="20" as="geometry" />
        </mxCell>
        <mxCell id="ZHXeCCwzYI6Dn_CKhOby-24" value="&lt;font style=&quot;font-size: 12px;&quot;&gt;Бухгалтер&lt;/font&gt;" style="text;html=1;strokeColor=none;fillColor=none;align=center;verticalAlign=middle;whiteSpace=wrap;rounded=0;" vertex="1" parent="1">
          <mxGeometry x="500" y="355" width="90" height="10" as="geometry" />
        </mxCell>
        <mxCell id="ZHXeCCwzYI6Dn_CKhOby-26" value="оформление счёта" style="text;html=1;strokeColor=none;fillColor=none;align=center;verticalAlign=middle;whiteSpace=wrap;rounded=0;" vertex="1" parent="1">
          <mxGeometry x="355" y="310" width="90" height="30" as="geometry" />
        </mxCell>
        <mxCell id="ZHXeCCwzYI6Dn_CKhOby-27" value="" style="endArrow=none;html=1;rounded=0;exitX=0.5;exitY=0;exitDx=0;exitDy=0;" edge="1" parent="1" source="ZHXeCCwzYI6Dn_CKhOby-31">
          <mxGeometry width="50" height="50" relative="1" as="geometry">
            <mxPoint x="399.58" y="255" as="sourcePoint" />
            <mxPoint x="399.58" y="200" as="targetPoint" />
          </mxGeometry>
        </mxCell>
        <mxCell id="ZHXeCCwzYI6Dn_CKhOby-28" value="" style="endArrow=none;html=1;rounded=0;exitX=1;exitY=0.5;exitDx=0;exitDy=0;" edge="1" parent="1" source="ZHXeCCwzYI6Dn_CKhOby-39">
          <mxGeometry width="50" height="50" relative="1" as="geometry">
            <mxPoint x="310" y="250" as="sourcePoint" />
            <mxPoint x="360" y="200" as="targetPoint" />
          </mxGeometry>
        </mxCell>
        <mxCell id="ZHXeCCwzYI6Dn_CKhOby-29" value="" style="endArrow=none;html=1;rounded=0;exitX=0.75;exitY=1;exitDx=0;exitDy=0;entryX=0.5;entryY=0;entryDx=0;entryDy=0;" edge="1" parent="1" source="ZHXeCCwzYI6Dn_CKhOby-40" target="ZHXeCCwzYI6Dn_CKhOby-23">
          <mxGeometry width="50" height="50" relative="1" as="geometry">
            <mxPoint x="460" y="230" as="sourcePoint" />
            <mxPoint x="540" y="240" as="targetPoint" />
          </mxGeometry>
        </mxCell>
        <mxCell id="ZHXeCCwzYI6Dn_CKhOby-33" value="" style="endArrow=none;html=1;rounded=0;exitX=0.5;exitY=0;exitDx=0;exitDy=0;" edge="1" parent="1" source="ZHXeCCwzYI6Dn_CKhOby-17" target="ZHXeCCwzYI6Dn_CKhOby-31">
          <mxGeometry width="50" height="50" relative="1" as="geometry">
            <mxPoint x="400" y="280" as="sourcePoint" />
            <mxPoint x="399.58" y="200" as="targetPoint" />
          </mxGeometry>
        </mxCell>
        <mxCell id="ZHXeCCwzYI6Dn_CKhOby-31" value="" style="ellipse;whiteSpace=wrap;html=1;aspect=fixed;" vertex="1" parent="1">
          <mxGeometry x="395" y="270" width="10" height="10" as="geometry" />
        </mxCell>
        <mxCell id="ZHXeCCwzYI6Dn_CKhOby-39" value="" style="ellipse;whiteSpace=wrap;html=1;aspect=fixed;" vertex="1" parent="1">
          <mxGeometry x="225" y="270" width="10" height="10" as="geometry" />
        </mxCell>
        <mxCell id="ZHXeCCwzYI6Dn_CKhOby-41" value="" style="endArrow=none;html=1;rounded=0;exitX=0.75;exitY=1;exitDx=0;exitDy=0;entryX=0;entryY=0.5;entryDx=0;entryDy=0;" edge="1" parent="1" source="ZHXeCCwzYI6Dn_CKhOby-3" target="ZHXeCCwzYI6Dn_CKhOby-40">
          <mxGeometry width="50" height="50" relative="1" as="geometry">
            <mxPoint x="428" y="200" as="sourcePoint" />
            <mxPoint x="560" y="280" as="targetPoint" />
          </mxGeometry>
        </mxCell>
        <mxCell id="ZHXeCCwzYI6Dn_CKhOby-40" value="" style="ellipse;whiteSpace=wrap;html=1;aspect=fixed;" vertex="1" parent="1">
          <mxGeometry x="555" y="270" width="10" height="10" as="geometry" />
        </mxCell>
      </root>
    </mxGraphModel>
  </diagram>
</mxfile>
